# xmcd
#
# Track frame offsets:
#	150
#	16791
#	28536
#	39011
#	51058
#	65132
#	81276
#	97916
#	108205
#	119525
#	134688
#	145587
#	157263
#	173135
#	187546
#	197294
#	209533
#	220669
#	239350
#	258685
#	270671
#	287363
#	299970
#	313682
#	323099
#	341652
#
# Disc length: 4754 seconds
#
# Revision: 0
# Processed by: cddbd v1.5.2PL0 Copyright (c) Steve Scherf et al.
# Submitted via: EasyCDDAExtractor 2010.4.0.0
#
DISCID=7d12901a
DTITLE=Various Artist - Country Hits, Vol. 30
DYEAR=2010
DGENRE=Country
TTITLE0=Keith Whitley - Day In The Life Of A Fool
TTITLE1=Nanci Griffith - The Loving Kind
TTITLE2=Daniel O'donnell - I M Going To Be A Country Boy Again
TTITLE3=Porter Wagoner - Men With Broken Hearts
TTITLE4=Randy Travis - On The Other Hand
TTITLE5=Sam Millar - Saturday Night
TTITLE6=McAlister Kemp - Woman And Men
TTITLE7=Daniel O Donnell - Do You Wanna Dance
TTITLE8=Moby Grape - Ain't That A Shame
TTITLE9=Neal McCoy - For A Change
TTITLE10=Porter Wagoner - Be A Little Quieter
TTITLE11=Daniel O'Donnell - Don't Say Love
TTITLE12=Radney Foster - Don't Say Goodbye
TTITLE13=Hal Ketchum - She Found The Place
TTITLE14=Rick Nelson - Down Along The Bayou Country
TTITLE15=Daniel O'donnell - Travellin' Light
TTITLE16=Moby Grape - Changes Circles Spinning
TTITLE17=Daniel O'Donnell - Give A Little Love
TTITLE18=Kenny Rogers - Long arm of the law
TTITLE19=Daniel O'donnell - Donna
TTITLE20=Hal Ketchum - That's What I Get For Losing You (1)
TTITLE21=Daniel O'donnell - Wooden Heart
TTITLE22=Keith Whitley - I'm Over You
TTITLE23=Moby Grape - Right Before My Eyes
TTITLE24=Daniel O Donnell - Living Next Door to Alice [Live][*]
TTITLE25=Hoyt Axton - The House Song
EXTD=
EXTT0=
EXTT1=
EXTT2=
EXTT3=
EXTT4=
EXTT5=
EXTT6=
EXTT7=
EXTT8=
EXTT9=
EXTT10=
EXTT11=
EXTT12=
EXTT13=
EXTT14=
EXTT15=
EXTT16=
EXTT17=
EXTT18=
EXTT19=
EXTT20=
EXTT21=
EXTT22=
EXTT23=
EXTT24=
EXTT25=
PLAYORDER=
